<svg version="1.1" xmlns="http://www.w3.org/2000/svg" xmlns:xlink="http://www.w3.org/1999/xlink" width="36.7344" height="36.7656">
 <g>
  <rect height="36.7656" opacity="0" width="36.7344" x="0" y="0"/>
  <path d="M6.07812 36.7656L30.6406 36.7656C34.6875 36.7656 36.7344 34.7344 36.7344 30.75L36.7344 6.0625C36.7344 2.07812 34.6875 0.046875 30.6406 0.046875L6.07812 0.046875C2.04688 0.046875 0 2.0625 0 6.0625L0 30.75C0 34.75 2.04688 36.7656 6.07812 36.7656Z" fill="#000000" fill-opacity="0.85"/>
  <path d="M14.3125 29.5938C11.625 29.5938 10.0469 28.0625 10.0469 24.9844L10.0469 22.2031C10.0469 20.6406 9.625 20.2344 8.48438 19.9219C6.98438 19.5156 6.96875 17.2656 8.48438 16.875C9.625 16.5625 10.0469 16.1562 10.0469 14.5938L10.0469 11.8125C10.0469 8.71875 11.625 7.1875 14.3125 7.1875C15.3438 7.1875 15.9531 7.70312 15.9531 8.42188C15.9531 9.15625 15.4062 9.625 14.7031 9.625C13.2812 9.625 12.6562 10.2656 12.6562 12.0938L12.6562 15.0781C12.6562 16.9375 11.5156 18.2812 9.71875 18.5312L9.71875 18.2188C11.5156 18.4844 12.6562 19.8438 12.6562 21.7188L12.6562 24.7031C12.6562 26.5156 13.2812 27.1719 14.7031 27.1719C15.4062 27.1719 15.9531 27.6406 15.9531 28.3594C15.9531 29.0781 15.3438 29.5938 14.3125 29.5938ZM22.4375 29.5938C21.3906 29.5938 20.7969 29.0781 20.7969 28.3594C20.7969 27.6406 21.3281 27.1719 22.0312 27.1719C23.4531 27.1719 24.0938 26.5156 24.0938 24.7031L24.0938 21.7188C24.0938 19.8438 25.2188 18.4844 27.0312 18.2188L27.0312 18.5312C25.2188 18.2812 24.0938 16.9375 24.0938 15.0781L24.0938 12.0938C24.0938 10.2656 23.4531 9.625 22.0312 9.625C21.3281 9.625 20.7969 9.15625 20.7969 8.42188C20.7969 7.70312 21.3906 7.1875 22.4375 7.1875C25.1094 7.1875 26.7031 8.71875 26.7031 11.8125L26.7031 14.5938C26.7031 16.1562 27.125 16.5469 28.25 16.875C29.7656 17.25 29.7656 19.5312 28.25 19.9219C27.1094 20.2188 26.7031 20.6406 26.7031 22.2031L26.7031 24.9844C26.7031 28.0625 25.1094 29.5938 22.4375 29.5938Z" fill="#ffffff"/>
 </g>
</svg>